Coordinates
version=1
nRows=19
nColumns=27
inDegrees=yes

Units are S.I. units (second, meters, Newtons, ...)
If the header above contains a line with 'inDegrees', this indicates whether rotational values are in degrees (yes) or radians (no).

endheader
time	pelvis_rotation	pelvis_tilt	pelvis_list	pelvis_tx	pelvis_ty	pelvis_tz	hip_flexion_r	hip_adduction_r	hip_rotation_r	knee_angle_r	knee_rotation_r	knee_adduction_r	knee_angle_r_beta	ankle_angle_r	subtalar_angle_r	mtp_angle_r	hip_flexion_l	hip_adduction_l	hip_rotation_l	knee_angle_l	knee_rotation_l	knee_adduction_l	knee_angle_l_beta	ankle_angle_l	subtalar_angle_l	mtp_angle_l
      4.78500000	      8.23773263	    -19.36504148	     -0.68363980	      0.00677345	      0.45287962	     -1.14527322	    107.46556681	    -48.23632861	     23.43215226	    108.04701529	      0.00000000	      9.94505842	      1.88577616	     19.99704766	      0.00000000	      0.00000000	    113.33039760	    -30.78158133	     24.47768991	    103.64707356	      0.00000000	     -9.95887220	      1.80898269	     14.35850681	      0.00000000	      0.00000000
      4.79000000	      8.27384334	    -19.23700757	     -0.75485219	      0.00711050	      0.45165832	     -1.14533352	    107.41767872	    -48.27116373	     23.53121389	    108.19717796	      0.00000000	      9.94506710	      1.88839700	     20.08047547	      0.00000000	      0.00000000	    113.42098375	    -30.69236911	     24.68149888	    103.82706588	      0.00000000	     -9.95896088	      1.81212415	     14.40478646	      0.00000000	      0.00000000
      4.79500000	      8.28154374	    -19.13243924	     -0.81491394	      0.00738338	      0.45045663	     -1.14536048	    107.42574855	    -48.26698703	     23.64330662	    108.35463069	      0.00000000	      9.94509411	      1.89114507	     20.11936334	      0.00000000	      0.00000000	    113.53352279	    -30.64831434	     24.87398576	    103.99793751	      0.00000000	     -9.95905604	      1.81510642	     14.45326596	      0.00000000	      0.00000000
      4.80000000	      8.29266147	    -19.04270688	     -0.85384465	      0.00763699	      0.44926192	     -1.14541493	    107.47636493	    -48.26082716	     23.79463096	    108.50555384	      0.00000000	      9.94514217	      1.89377917	     20.16539284	      0.00000000	      0.00000000	    113.64422693	    -30.60610477	     25.03815736	    104.16874788	      0.00000000	     -9.95914464	      1.81808763	     14.51749684	      0.00000000	      0.00000000
      4.80500000	      8.30034242	    -18.98036091	     -0.90889578	      0.00784075	      0.44811306	     -1.14544715	    107.52921820	    -48.25361930	     23.91008729	    108.65464876	      0.00000000	      9.94517925	      1.89638137	     20.19987555	      0.00000000	      0.00000000	    113.79489761	    -30.56405451	     25.21549612	    104.33006729	      0.00000000	     -9.95924164	      1.82090318	     14.53627357	      0.00000000	      0.00000000
      4.81000000	      8.31407716	    -18.91364734	     -0.95424060	      0.00803858	      0.44701516	     -1.14548961	    107.59077133	    -48.26356954	     24.03525861	    108.79472222	      0.00000000	      9.94522352	      1.89882611	     20.23024769	      0.00000000	      0.00000000	    113.92708577	    -30.52119014	     25.37403843	    104.48682263	      0.00000000	     -9.95932311	      1.82363908	     14.57698702	      0.00000000	      0.00000000
      4.81500000	      8.32425210	    -18.86235856	     -0.98828789	      0.00820009	      0.44594213	     -1.14553844	    107.67722338	    -48.26209310	     24.17347507	    108.92925223	      0.00000000	      9.94526962	      1.90117410	     20.26472312	      0.00000000	      0.00000000	    114.06513864	    -30.49106497	     25.51351496	    104.63359360	      0.00000000	     -9.95942635	      1.82620072	     14.60349053	      0.00000000	      0.00000000
      4.82000000	      8.33864935	    -18.82637358	     -1.02835836	      0.00833570	      0.44491845	     -1.14559194	    107.77427971	    -48.27660155	     24.29561617	    109.05579220	      0.00000000	      9.94533267	      1.90338264	     20.27318181	      0.00000000	      0.00000000	    114.22122261	    -30.45488335	     25.65392090	    104.77491781	      0.00000000	     -9.95952504	      1.82866729	     14.62666301	      0.00000000	      0.00000000
      4.82500000	      8.34891652	    -18.80345972	     -1.05134277	      0.00843723	      0.44391387	     -1.14564784	    107.90826106	    -48.28261102	     24.44300213	    109.18049661	      0.00000000	      9.94539497	      1.90555914	     20.28231445	      0.00000000	      0.00000000	    114.37779318	    -30.43204567	     25.77161205	    104.90926716	      0.00000000	     -9.95961782	      1.83101213	     14.64474549	      0.00000000	      0.00000000
      4.83000000	      8.35386917	    -18.77191686	     -1.08795818	      0.00853103	      0.44298138	     -1.14569251	    108.00128992	    -48.29332216	     24.55333203	    109.29405654	      0.00000000	      9.94545956	      1.90754114	     20.31226799	      0.00000000	      0.00000000	    114.53257323	    -30.41851267	     25.89487754	    105.03618139	      0.00000000	     -9.95970173	      1.83322720	     14.63732154	      0.00000000	      0.00000000
      4.83500000	      8.36563861	    -18.79976297	     -1.09666224	      0.00854821	      0.44204461	     -1.14573983	    108.21787564	    -48.30170322	     24.71743358	    109.41245042	      0.00000000	      9.94554954	      1.90960750	     20.29036913	      0.00000000	      0.00000000	    114.72771451	    -30.39628328	     25.99157342	    105.16001384	      0.00000000	     -9.95979435	      1.83538848	     14.64457359	      0.00000000	      0.00000000
      4.84000000	      8.35584961	    -18.79906559	     -1.11761341	      0.00855590	      0.44119095	     -1.14579481	    108.37129391	    -48.28990880	     24.84686883	    109.51590350	      0.00000000	      9.94561358	      1.91141310	     20.26690499	      0.00000000	      0.00000000	    114.89269188	    -30.40542972	     26.08612537	    105.27060492	      0.00000000	     -9.95987739	      1.83731866	     14.65189997	      0.00000000	      0.00000000
      4.84500000	      8.36570307	    -18.82390854	     -1.12126222	      0.00855400	      0.44034532	     -1.14584479	    108.56417033	    -48.29662921	     25.00019983	    109.61904487	      0.00000000	      9.94567095	      1.91321326	     20.28477327	      0.00000000	      0.00000000	    115.07869573	    -30.39960201	     26.15949205	    105.37952048	      0.00000000	     -9.95995092	      1.83921960	     14.61688681	      0.00000000	      0.00000000
      4.85000000	      8.36864279	    -18.86637843	     -1.13292487	      0.00851000	      0.43956355	     -1.14590040	    108.76683109	    -48.30096244	     25.13410887	    109.71368138	      0.00000000	      9.94574774	      1.91486497	     20.27212402	      0.00000000	      0.00000000	    115.27724164	    -30.39014642	     26.23924617	    105.48378786	      0.00000000	     -9.96002370	      1.84103941	     14.60892590	      0.00000000	      0.00000000
      4.85500000	      8.37114501	    -18.90271919	     -1.13842082	      0.00845872	      0.43884213	     -1.14595757	    108.95998710	    -48.30035034	     25.26515578	    109.80228627	      0.00000000	      9.94578765	      1.91641142	     20.25578703	      0.00000000	      0.00000000	    115.46126701	    -30.39111555	     26.30211614	    105.57608815	      0.00000000	     -9.96008487	      1.84265035	     14.56316992	      0.00000000	      0.00000000
      4.86000000	      8.39882176	    -18.95067768	     -1.12425916	      0.00838167	      0.43817116	     -1.14604336	    109.19102916	    -48.33481462	     25.41590779	    109.88233542	      0.00000000	      9.94580417	      1.91780854	     20.23878236	      0.00000000	      0.00000000	    115.62805205	    -30.36220013	     26.33243702	    105.66427469	      0.00000000	     -9.96012516	      1.84418950	     14.52978479	      0.00000000	      0.00000000
      4.86500000	      8.39606494	    -19.04084226	     -1.14199454	      0.00823559	      0.43750315	     -1.14609921	    109.42208607	    -48.32078751	     25.53287050	    109.95804011	      0.00000000	      9.94584487	      1.91912984	     20.19959695	      0.00000000	      0.00000000	    115.87847998	    -30.34839197	     26.41014949	    105.74744344	      0.00000000	     -9.96013834	      1.84564106	     14.45946401	      0.00000000	      0.00000000
      4.87000000	      8.38743134	    -19.08413703	     -1.14367882	      0.00810329	      0.43697238	     -1.14615990	    109.59064747	    -48.29419791	     25.63561820	    110.02277060	      0.00000000	      9.94582370	      1.92025960	     20.18780260	      0.00000000	      0.00000000	    116.03627354	    -30.35915989	     26.44618595	    105.81967317	      0.00000000	     -9.96017861	      1.84690171	     14.44958732	      0.00000000	      0.00000000
      4.87500000	      8.40026068	    -19.15559541	     -1.14961755	      0.00793696	      0.43644848	     -1.14624815	    109.78715209	    -48.29541380	     25.73975134	    110.08028920	      0.00000000	      9.94579912	      1.92126349	     20.16215597	      0.00000000	      0.00000000	    116.22505229	    -30.32657014	     26.48635317	    105.89117207	      0.00000000	     -9.96017654	      1.84814960	     14.41025403	      0.00000000	      0.00000000
